<?xml version="1.0" standalone="no"?>
<!DOCTYPE svg PUBLIC "-//W3C//DTD SVG 20010904//EN"
 "http://www.w3.org/TR/2001/REC-SVG-20010904/DTD/svg10.dtd">
<svg version="1.0" xmlns="http://www.w3.org/2000/svg"
 width="1200.000000pt" height="1200.000000pt" viewBox="0 0 1200.000000 1200.000000"
 preserveAspectRatio="xMidYMid meet">
<metadata>
Created by potrace 1.14, written by Peter Selinger 2001-2017
</metadata>
<g transform="translate(0.000000,1200.000000) scale(0.100000,-0.100000)"
fill="#000000" stroke="none">
<path d="M5745 11983 c-498 -104 -915 -671 -1214 -1651 -22 -73 -43 -143 -45
-155 -3 -12 -19 -74 -36 -137 -32 -116 -113 -472 -124 -544 -4 -21 -8 -48 -11
-60 -3 -12 -7 -34 -10 -51 -72 -415 -82 -485 -73 -485 8 0 426 -158 446 -169
18 -10 21 -7 31 37 11 52 38 188 46 242 3 19 10 51 15 70 5 19 12 50 15 67 3
18 12 63 21 100 9 38 18 78 20 90 2 13 22 94 45 180 22 87 42 168 45 180 2 12
9 35 15 50 6 16 10 29 9 31 -5 14 108 363 181 557 162 433 328 737 500 917
161 167 276 207 415 144 215 -99 468 -452 683 -956 18 -41 39 -89 46 -106 87
-192 304 -819 380 -1099 8 -27 23 -84 35 -125 12 -41 23 -82 25 -90 19 -79 53
-184 58 -182 4 1 73 34 153 73 l146 71 -6 58 c-4 32 -8 66 -10 77 -2 10 -7 47
-11 83 -4 36 -8 67 -10 70 -1 3 -6 32 -10 65 -3 32 -8 62 -10 65 -1 3 -6 28
-9 55 -14 102 -68 371 -117 575 -53 223 -174 611 -229 735 -10 22 -37 85 -60
140 -23 55 -69 151 -101 212 -307 588 -666 881 -1077 881 -53 0 -128 -7 -167
-15z"/>
<path d="M9887 9484 c-1 -1 -47 -5 -102 -9 -55 -3 -113 -8 -130 -10 -88 -10
-141 -17 -160 -21 -11 -2 -40 -7 -65 -10 -25 -3 -85 -14 -135 -25 -49 -10
-103 -21 -120 -23 -60 -10 -304 -76 -469 -125 -512 -155 -1195 -453 -1851
-806 -33 -18 -91 -49 -130 -70 -100 -53 -181 -98 -335 -183 -74 -41 -147 -82
-162 -89 -15 -8 -30 -18 -32 -22 -3 -4 22 -20 55 -36 l60 -27 187 77 c103 43
202 84 220 92 37 16 79 32 347 130 317 117 736 250 1090 347 267 72 719 181
840 201 17 3 50 10 75 15 49 10 163 31 195 35 11 2 63 10 115 18 84 14 122 19
245 33 186 20 495 26 630 11 75 -8 182 -31 230 -48 147 -54 218 -110 263 -209
21 -45 26 -72 28 -155 3 -110 -11 -192 -56 -325 -90 -272 -278 -595 -557 -960
-19 -25 -216 -264 -228 -276 -5 -6 -39 -44 -75 -85 -76 -87 -420 -433 -535
-539 -402 -370 -992 -818 -1536 -1163 -622 -396 -1410 -815 -2174 -1157 -27
-12 -88 -40 -133 -61 -46 -22 -86 -39 -88 -39 -2 0 -38 -16 -80 -35 -41 -19
-77 -35 -79 -35 -3 0 -28 -11 -57 -24 -29 -13 -82 -36 -118 -51 -36 -14 -78
-32 -95 -40 -16 -7 -82 -34 -145 -60 -63 -26 -122 -51 -131 -56 -14 -7 -14
-18 2 -121 33 -222 59 -368 65 -368 3 0 43 18 90 40 47 22 88 40 91 40 8 0
564 277 658 328 50 26 131 70 180 97 50 26 97 54 106 61 8 8 19 14 23 14 16 0
579 336 739 442 32 21 60 38 61 38 8 0 501 328 696 463 482 333 1047 751 1475
1091 170 136 610 498 625 515 3 3 39 35 80 71 41 35 77 67 80 70 3 3 25 23 50
44 189 165 654 620 787 771 98 111 100 114 198 235 130 162 269 373 342 520
57 114 115 257 128 313 2 12 12 54 21 92 18 79 24 248 12 315 -5 25 -11 59
-13 75 -3 17 -15 57 -27 90 -104 285 -375 477 -778 550 -25 4 -56 8 -165 21
-51 6 -323 12 -328 8z"/>
<path d="M1748 9335 c-2 -1 -55 -5 -118 -9 -131 -7 -153 -10 -270 -37 -337
-78 -561 -260 -655 -534 -49 -142 -53 -358 -11 -530 43 -173 151 -428 227
-537 11 -14 19 -29 19 -32 0 -10 115 -181 188 -279 196 -263 415 -497 752
-802 189 -171 688 -556 900 -695 8 -5 31 -21 50 -34 239 -165 1125 -719 1188
-744 11 -4 13 9 7 64 -3 38 -7 69 -8 70 -1 1 -60 46 -132 100 -108 81 -304
234 -390 305 -70 58 -231 194 -235 199 -3 3 -39 35 -82 72 -100 87 -145 127
-323 291 -114 105 -615 604 -695 692 -25 28 -72 79 -105 115 -32 36 -74 83
-94 105 -220 243 -460 555 -593 771 -63 102 -169 314 -192 385 -53 164 -58
316 -12 406 53 106 213 208 391 249 38 9 120 25 155 30 19 3 45 7 57 9 138 23
491 22 723 0 25 -3 72 -7 105 -10 33 -3 71 -8 85 -10 14 -2 45 -7 70 -10 54
-7 157 -23 185 -29 11 -2 40 -7 65 -12 25 -4 47 -8 50 -9 31 -6 90 -18 110
-21 14 -3 84 -19 155 -35 72 -17 141 -33 154 -35 62 -12 486 -140 658 -198
169 -58 523 -190 578 -216 11 -5 85 -37 165 -71 275 -116 787 -362 1000 -481
25 -14 72 -40 105 -58 33 -18 74 -40 90 -50 17 -10 50 -29 75 -42 86 -48 236
-136 390 -230 85 -52 177 -107 204 -124 319 -193 1375 -927 1621 -1127 39 -31
224 -173 243 -185 14 -9 26 -11 35 -5 59 46 291 235 324 264 l42 38 -75 53
c-42 29 -94 67 -117 84 -81 59 -403 273 -578 382 -321 200 -715 425 -1069 609
-165 86 -698 353 -704 353 -2 0 -64 29 -137 64 -185 88 -277 131 -394 183 -55
25 -123 55 -151 68 -477 217 -1206 513 -1704 692 -252 90 -699 238 -805 266
-11 3 -51 15 -90 27 -58 17 -137 39 -235 66 -165 44 -535 122 -665 139 -22 3
-53 8 -70 10 -75 13 -448 37 -457 30z"/>
<path d="M4167 8412 c-3 -4 -8 -41 -11 -82 -4 -41 -9 -93 -11 -115 -6 -63 -14
-164 -20 -245 -3 -41 -7 -100 -9 -130 -21 -284 -28 -1190 -13 -1505 5 -82 10
-193 12 -245 2 -52 6 -133 9 -180 3 -47 8 -128 11 -180 4 -52 8 -117 10 -145
5 -51 12 -140 20 -250 3 -33 7 -86 11 -119 3 -32 7 -77 9 -100 7 -91 15 -183
20 -216 2 -19 7 -69 11 -110 3 -41 8 -82 9 -90 1 -8 6 -51 10 -94 4 -43 8 -86
10 -95 1 -9 6 -47 10 -84 3 -37 8 -76 10 -85 1 -9 6 -48 10 -85 3 -37 8 -77
10 -87 2 -10 6 -45 10 -77 3 -32 8 -69 10 -83 2 -14 6 -47 10 -75 3 -27 8 -61
10 -75 2 -14 9 -63 15 -110 7 -47 13 -94 15 -105 2 -18 10 -73 20 -135 2 -14
6 -43 10 -65 3 -23 7 -50 9 -60 4 -20 13 -82 22 -140 3 -16 13 -79 24 -140 10
-60 22 -126 25 -145 3 -19 15 -84 26 -145 12 -60 23 -121 25 -135 3 -14 7 -36
9 -50 3 -14 8 -38 11 -55 2 -16 7 -38 10 -47 5 -17 11 -44 20 -93 3 -16 25
-120 50 -230 295 -1313 684 -2006 1219 -2175 88 -28 271 -36 360 -16 269 61
497 239 719 563 31 46 56 84 56 86 0 2 22 42 48 88 169 293 324 714 429 1162
19 84 37 161 39 172 2 11 6 31 9 45 3 14 7 36 10 50 3 14 7 36 10 50 2 14 7
41 10 60 3 19 10 60 15 90 5 30 12 71 15 90 3 19 7 46 10 60 6 34 13 84 21
155 3 33 8 69 10 80 2 11 6 47 9 80 3 33 7 71 10 85 2 14 6 59 10 100 3 41 8
91 11 110 4 34 7 84 19 265 3 50 8 117 10 150 17 223 41 1165 30 1165 -3 0
-20 -10 -37 -22 -75 -54 -76 -56 -83 -137 -4 -42 -9 -83 -10 -91 -2 -9 -6 -43
-10 -75 -4 -33 -9 -67 -10 -75 -2 -9 -7 -43 -11 -75 -4 -33 -8 -62 -9 -65 -1
-3 -5 -30 -9 -60 -5 -30 -10 -64 -12 -75 -2 -10 -6 -35 -9 -55 -3 -20 -7 -47
-10 -60 -3 -13 -7 -42 -11 -64 -3 -22 -7 -43 -9 -46 -2 -3 -6 -26 -10 -50 -3
-25 -18 -101 -32 -170 -13 -69 -27 -136 -29 -149 -43 -226 -174 -754 -264
-1061 -33 -113 -62 -212 -64 -220 -11 -44 -115 -354 -161 -480 -109 -297 -233
-575 -324 -725 -23 -37 -41 -69 -41 -72 0 -8 -81 -124 -125 -178 -74 -92 -120
-137 -189 -186 -145 -102 -269 -105 -432 -8 -74 43 -252 221 -326 324 -132
187 -281 452 -383 685 -20 47 -43 99 -50 115 -29 65 -125 325 -155 420 -17 55
-35 109 -40 120 -9 19 -105 354 -115 399 -2 11 -7 34 -10 50 -3 16 -8 33 -10
36 -2 4 -20 80 -40 171 -19 90 -38 175 -41 189 -3 14 -8 36 -10 50 -3 14 -12
63 -20 110 -22 116 -40 224 -49 290 -2 14 -13 90 -24 170 -11 80 -23 168 -26
195 -3 28 -7 64 -10 80 -2 17 -7 62 -10 100 -3 39 -8 85 -10 102 -3 18 -7 66
-10 105 -3 40 -7 98 -10 128 -11 121 -22 318 -30 530 -5 122 -5 857 -1 975 9
201 17 393 21 450 2 33 6 107 9 165 4 58 8 128 11 155 7 84 16 197 20 250 7
92 15 190 20 230 2 22 7 72 10 110 3 39 8 84 10 100 2 17 7 62 10 100 4 39 8
81 10 95 2 14 7 52 10 85 4 33 8 71 10 85 2 14 7 54 10 90 4 36 9 73 11 84 2
10 6 44 9 75 3 31 8 65 10 76 2 11 7 47 10 80 4 33 10 77 15 97 5 24 4 42 -4
51 -9 12 -123 57 -408 163 -20 7 -39 10 -41 6z"/>
<path d="M5863 6980 c-29 -4 -64 -11 -78 -14 -14 -4 -26 -6 -27 -5 -8 2 -161
-58 -208 -81 -277 -141 -479 -421 -527 -730 -9 -60 -10 -233 -1 -295 21 -140
83 -296 167 -418 50 -72 152 -181 201 -214 14 -9 27 -19 30 -22 52 -58 296
-160 427 -178 107 -15 291 -7 380 15 367 93 638 363 734 730 26 98 32 286 13
397 -55 322 -268 599 -564 734 -68 30 -180 66 -240 76 -59 10 -252 13 -307 5z"/>
<path d="M9283 5928 c-55 -46 -141 -116 -191 -157 -51 -41 -92 -78 -92 -81 0
-4 15 -19 33 -33 17 -14 46 -37 62 -52 17 -15 53 -46 80 -70 80 -69 91 -78
182 -161 127 -115 279 -261 422 -408 163 -166 153 -156 246 -261 43 -49 81
-92 84 -95 3 -3 24 -27 46 -55 21 -27 42 -52 45 -55 3 -3 37 -45 75 -95 39
-49 73 -94 78 -100 45 -58 77 -106 77 -114 0 -5 3 -11 8 -13 6 -3 48 -63 77
-110 96 -158 169 -308 203 -413 45 -140 51 -267 17 -349 -45 -108 -213 -193
-455 -230 -166 -25 -524 -26 -721 -1 -19 3 -56 7 -84 10 -50 5 -117 14 -165
20 -14 2 -45 7 -70 10 -38 5 -144 22 -250 40 -29 5 -235 44 -266 51 -111 22
-228 48 -324 70 -63 14 -123 28 -133 30 -10 1 -115 29 -233 60 -118 31 -216
55 -219 53 -3 -4 -10 -81 -21 -229 -3 -41 -7 -81 -9 -88 -4 -12 15 -23 150
-82 105 -46 458 -176 640 -235 228 -75 624 -179 760 -200 11 -1 76 -12 145
-23 234 -39 327 -46 575 -47 110 0 236 4 279 8 508 51 851 282 965 652 29 91
35 147 35 280 -1 146 -44 351 -100 472 -7 17 -14 34 -14 38 0 12 -85 181 -139
275 -84 148 -259 397 -355 508 -13 15 -56 64 -94 110 -161 187 -467 495 -674
677 -25 22 -74 65 -109 96 -35 31 -111 96 -169 144 -58 48 -116 97 -130 109
-51 43 -158 126 -163 126 -3 0 -50 -37 -104 -82z"/>
<path d="M2544 5822 c-12 -9 -34 -26 -50 -37 -94 -67 -474 -378 -545 -445 -8
-8 -42 -39 -75 -69 -665 -602 -1118 -1267 -1189 -1746 -4 -22 -8 -51 -10 -65
-7 -37 -7 -220 0 -255 28 -154 68 -258 137 -356 135 -192 330 -316 602 -383
112 -28 130 -32 207 -40 30 -4 72 -9 94 -11 49 -6 353 -6 415 -1 25 3 79 7
120 11 41 3 82 8 90 10 8 2 40 7 70 10 30 3 93 13 140 21 47 9 96 17 110 19
14 2 59 11 100 20 41 9 86 18 100 21 198 40 902 248 1025 303 27 12 342 130
383 144 37 12 36 8 18 118 -8 46 -17 102 -21 124 -3 23 -8 52 -10 65 -8 39
-23 143 -24 170 -3 39 -16 41 -87 14 -164 -62 -730 -242 -814 -259 -8 -2 -67
-16 -130 -33 -242 -63 -472 -110 -720 -147 -14 -2 -43 -6 -65 -9 -111 -17
-305 -30 -455 -30 -419 -1 -662 90 -712 268 -61 221 119 641 489 1141 115 154
295 380 368 459 6 6 60 67 120 136 159 181 349 382 533 565 l92 92 -140 97
c-77 53 -142 96 -143 96 -1 -1 -12 -8 -23 -18z"/>
</g>
</svg>
